Patient4_TMGait_0pt5_02_right_43_EMG.mot
version=1
nRows=33
nColumns=33
inDegrees=no
endheader
time	1LAddLong	2LGlutMax	3LGlutMed	4LIliopsoas	5LSemiMemb	6LBicFemLong	7LRecFem	8LVastMed	9LVastLat	10LGasMed	11LTibAnt	12lTibPost	13LPeroneusLong	14LSol	15LExtDigLong	16LFlexDigLong	17RAddLong	18RGlutMax	19RGlutMed	20RIliopsoas	21RSemiMemb	22RBicFemLong	23RRecFem	24RVastMed	25RVastLat	26RGasMed	27RTibAnt	28RTibPost	29RPeroneusLong	30RSol	31RExtDigLong	32RFlexDigLong
57.01	-0.002136	-0.29724	-0.007019	0.018311	0.079956	-0.6662	0.10239	-0.00412	-0.08255	-0.050659	0.014038	-0.00061	-0.15579	0.1564	-0.3215	-0.009308	0.06546	-0.22156	-0.11108	-0.002441	-0.26764	0.21744	-0.029755	-0.083313	-0.11597	0.004578	-0.44891	-0.001678	0.25207	0.10971	-0.003662	0.000763
57.011	0.026093	-0.17288	0.031281	0.005798	0.060272	-0.76584	0.028839	-0.003052	0.028381	-0.033417	-0.026703	-0.002747	0.09903	0.14603	-0.036469	-0.005188	-0.006714	-0.32608	0.055542	-0.029297	-0.27603	0.28473	0.002747	0.047455	0.015411	0.015717	0.42206	-0.006256	0.35324	-0.012817	-0.003967	-0.002747
57.012	0.015106	-0.059357	0.003662	0.001678	0.035095	-0.55634	0.040436	0.008087	0.24826	-0.042877	-0.029449	0.002136	0.45593	0.11292	0.036011	-0.00473	-0.061951	-0.43457	0.16617	0.021362	-0.40192	0.36392	0.097351	0.030518	0.001068	0.010529	0.33737	-0.008545	0.17807	-0.002441	-0.002289	-0.005035
57.013	0.00473	0.04776	-0.15121	-0.003662	0.046692	-0.29343	0.096588	0.019379	0.31525	-0.056458	-0.010071	0.006409	0.34119	-0.018463	-0.077209	-0.004883	-0.068512	-0.48004	0.12726	0.031891	-0.30594	0.25635	0.032959	-0.041046	-0.04364	0.009766	0.007629	-0.011444	0.077667	-0.031586	-0.002136	-0.007477
57.014	-0.005951	0.039063	-0.22385	0.010223	0.010223	-0.22064	-0.00824	0.010223	0.29388	-0.015717	0.035248	0.008545	0.10757	-0.21729	-0.12589	-0.025635	-0.018311	-0.42602	-0.24078	0.002289	-0.15839	-0.077057	0.048981	-0.037231	-0.042419	-0.001373	0.15579	-0.009918	-0.047455	0.16327	-0.005188	-0.010986
57.015	-0.009766	0.093536	-0.089264	0.003052	0.000916	-0.17883	-0.0383	0.025177	0.16251	0.043793	0.096741	-0.011139	-0.11322	-0.29572	-0.11917	-0.010834	-0.025482	-0.43213	0.36728	-0.069275	-0.026703	-0.25665	0.059052	-0.025024	-0.040131	-0.010834	0.31006	-0.007629	-0.048828	0.36957	-0.008087	-0.014038
57.016	0.02121	0.09079	0.24536	0.00824	-0.022278	-0.041046	-0.11612	0.038757	0.20493	0.054932	0.11169	0.005646	-0.25757	-0.25925	-0.11963	-0.005341	-0.021057	-0.40207	0.47653	-0.11444	0.12436	-0.1947	0.07019	-0.017853	-0.022125	-0.011749	0.14572	-0.011292	0.006714	0.53177	-0.005035	-0.017395
57.017	0.017853	0.071869	0.13245	0.014038	0.025635	0.042572	-0.16495	0.029144	0.16876	0.046844	-0.033417	0.011292	0.078278	-0.24292	-0.10742	-0.006256	0.022583	-0.46967	-0.09552	-0.046844	0.024719	-0.25574	0.1329	0.036774	-0.007477	-0.018311	0.04776	-0.016479	-0.03418	0.55649	-0.00351	-0.021515
57.018	0.006714	0.022278	0.099182	0.007477	0.054626	0.090332	-0.045471	0.011597	-0.027313	0.027466	-0.13687	0.026703	0.34058	-0.22232	0.000153	0.009766	0.001984	-0.39505	0.14664	-0.10407	-0.064697	-0.37018	0.13702	-0.004425	-0.020752	-0.018921	0.00061	-0.010376	-0.069733	0.44662	-0.001221	-0.021362
57.019	-0.002136	-0.037384	0.048523	0.007935	0.10483	0.27008	0.088348	0.018616	-0.1413	-0.004425	-0.15518	0.016174	0.24689	-0.097504	0.11475	0.002899	-0.040131	-0.36941	-0.027313	-0.061798	-0.2623	-0.55252	0.15579	0.034637	-0.024567	-0.017548	-0.22293	-0.009766	0.002594	0.30716	-0.001068	-0.018921
57.02	0.005035	-0.060577	-0.049133	0.008087	0.072632	0.3775	0.22522	-0.062103	-0.29221	0.020142	-0.096283	-0.003815	-0.19959	0.032043	0.15243	-0.003204	-0.096893	-0.31342	-0.18204	0.019379	-0.015259	-0.64941	0.097809	0.10483	-0.020599	-0.00946	-0.2626	-0.010986	0.030823	0.17609	-0.004425	-0.021057
57.021	-0.010071	0.001221	-0.038452	-0.004578	-0.019073	0.44922	0.20599	-0.017853	-0.36743	0.053864	-0.051117	-0.002136	-0.5159	0.083923	0.15503	-0.000916	-0.083466	-0.27466	-0.13901	0.085907	0.30594	-0.55756	0.076904	0.056152	-0.032349	-0.002594	-0.091095	-0.006256	-0.028992	0.094604	-0.001068	-0.016937
57.022	-0.013733	-0.054016	-0.080261	-0.005341	-0.12848	0.43289	0.11032	-0.011444	-0.37247	0.064545	-0.044098	0.023193	-0.11108	0.059509	0.11139	-0.013885	-0.028076	-0.26535	-0.073242	0.224	0.16785	-0.3186	0.12344	-0.04715	-0.050964	0.001068	0.26627	-0.007782	-0.16312	0.026855	0.005188	-0.013275
57.023	-0.00946	-0.14816	-0.15793	-0.012054	-0.22293	0.29862	0.05188	0.016174	-0.41946	0.037079	0.009918	0.009003	-0.30884	0.01236	0.094604	-0.000916	0.005188	-0.26871	0.002441	0.30502	-0.010986	-0.20355	0.11841	0.005188	-0.043182	0.000916	0.79453	-0.004425	-0.19943	-0.028992	-0.005188	-0.020142
57.024	-0.01297	-0.16525	-0.1944	0.011444	-0.20035	0.16144	0.10193	0.022583	-0.45334	0.030212	0.028381	0.00824	-0.33737	-0.011292	0.085297	0.003357	0.026398	-0.24719	0.10742	0.22537	0.16617	-0.13641	0.12039	-0.012512	-0.060577	0.005646	0.39505	-0.005646	-0.037231	-0.093842	-0.00412	-0.018463
57.025	0.005035	-0.14557	-0.039063	-0.007629	-0.036621	-0.1535	0.062866	0.025482	-0.36896	0.052795	0.023346	-0.005646	-0.18005	-0.016022	-0.063324	-0.001831	0.005341	-0.23865	0.14175	0.078888	0.11154	0.023193	0.12009	-0.060425	-0.060272	0.000458	-0.91904	-0.000305	0.11643	-0.12863	0.000153	-0.027924
57.026	0.018005	-0.18509	-0.001221	-0.002441	0.10346	-0.43488	0.06546	0.034943	-0.25772	0.044861	0.061035	0.002747	-0.19638	-0.056763	-0.19638	-0.005798	-0.045624	-0.2301	0.10483	0.009003	0.083466	0.26093	0.052948	0.016022	-0.044403	-0.004578	-0.93628	-0.009613	-0.009003	-0.029144	0.008087	-0.027008
57.027	0.036316	-0.12573	-0.011749	0.00061	0.15564	-0.74509	-0.001526	0.026398	-0.17075	0.037079	0.028534	0.012054	-0.006561	-0.097351	-0.22858	-0.007172	-0.055084	-0.25238	0.022278	-0.031128	0.03891	0.30838	0.028381	0.062561	-0.04715	-0.00946	-0.40573	-0.008545	-0.093994	0.11917	-0.003052	-0.033264
57.028	0.040741	-0.12558	0.11231	0.005951	0.19638	-0.44449	-0.066071	-0.018768	-0.10696	-0.001526	0.010986	0.020752	0.08606	-0.1001	-0.13794	-0.009918	0.030212	-0.31998	-0.080872	-0.1474	0.17319	0.19287	0.10239	-0.023346	-0.060577	-0.012665	-0.045013	-0.007324	-0.15106	0.1857	-0.002747	-0.031128
57.029	0.03067	-0.052185	0.038147	0.014954	0.15747	-0.26916	-0.078125	-0.031891	-0.10681	-0.007782	-0.038605	0.021515	0.058136	-0.076599	-0.053558	0.005188	0.050507	-0.36941	0.32791	-0.23315	0.14069	0.121	0.046539	-0.009918	-0.057983	0.001984	0.20096	-0.004883	-0.35797	0.061035	-0.003052	-0.032196
57.03	0.00946	-0.088501	-0.028687	0.012512	0.10147	-0.14267	-0.006104	-0.024719	-0.059204	0.007629	0.009308	0.019684	-0.070343	-0.028687	-0.012054	0.010834	0.060425	-0.38254	0.27359	-0.19379	0.054321	0.056458	0.001678	-0.021362	-0.041656	-0.007324	0.52216	-0.006256	-0.2829	0.00946	0.004425	-0.03418
57.031	-0.027161	-0.049744	-0.076141	0.009308	0.044403	-0.042419	0.041046	-0.020905	-0.049286	0.033264	0.047607	0.018463	-0.271	-0.015259	0.019836	0.012665	0.079041	-0.35263	-0.036774	-0.015411	0.019531	0.027466	0.036621	-0.029144	-0.065002	-0.018158	0.73456	-0.005341	-0.089264	0.049133	-0.003662	-0.033112
57.032	-0.057526	-0.012665	-0.078278	-0.00351	-0.03418	0.016479	0.069885	-0.005798	-0.008545	0.058746	0.06485	0.022736	-0.12421	-0.050812	0.011597	0.01297	0.069733	-0.30472	0.035553	0.20752	0.025024	0.005798	-0.034027	0.023651	-0.032501	-0.012207	0.26413	-0.000916	0.0914	0.059052	-0.00351	-0.035553
57.033	-0.062714	0.007935	-0.05127	0.011749	-0.042725	0.057678	0.093384	0.022736	0.018921	0.047302	0.046387	0.032501	0.10498	0.002136	0.03067	0.033875	0.053101	-0.29694	0.05722	0.18188	0.037994	0.20218	-0.092468	0.036469	-0.022125	-0.009155	-0.80017	0.00061	0.28748	-0.0383	-0.000153	-0.037537
57.034	-0.048218	0.056915	-0.049744	0.0177	-0.054779	0.13229	0.064545	0.023651	-0.014954	0.04837	0.031586	0.009918	0.60318	-0.017242	0.028992	0.028687	-0.001221	-0.37705	-0.16083	0.072174	0.033722	0.38696	-0.12283	0.03418	-0.015259	-0.005798	-1.0924	-0.003815	0.49164	-0.11841	-0.006104	-0.034943
57.035	-0.031891	0.1091	-0.078583	0.010071	-0.075989	0.037537	0.00885	-0.018768	0.010376	0.017242	0.014648	0.022278	0.10696	-0.008545	0.026398	0.029297	-0.007324	-0.36148	-0.17364	0.023804	-0.003967	0.4306	-0.12711	0.012817	-0.018921	-0.001221	-0.70129	-0.001373	0.35751	-0.084076	-0.006104	-0.035095
57.036	0.009308	0.12985	-0.081482	0.016785	-0.005035	-0.018311	-0.001221	-0.013275	0.040588	-0.01236	0.017395	0.027618	-0.41794	0.044861	0.02243	0.02594	-0.029907	-0.40451	0.043335	0.005341	-0.10422	0.27588	-0.069885	-0.056763	-0.036774	-0.003815	-0.42175	-0.008545	0.10986	-0.007935	-0.003052	-0.036621
57.037	0.026703	0.1181	-0.006866	0.011902	-0.018311	0.051422	0.071411	0.003815	0.001984	0.027924	0.023041	0.022583	-0.36041	0.047455	0.024261	0.021973	-0.071411	-0.31174	0.37506	0.017395	-0.1973	0.12299	-0.12268	0.040283	-0.023041	-0.004425	0.16144	-0.010529	0.065308	-0.010834	-0.002289	-0.035095
57.038	0.035706	0.078583	0.17029	0.024872	0.011902	0.18021	0.027771	0.025635	0.009766	0.039215	-0.000153	0.039825	-0.13214	0.068817	0.055389	0.015259	-0.078278	-0.41092	0.078888	0.059814	-0.15472	0.13748	-0.1265	0.1091	-0.004883	-0.001221	0.90164	-0.006866	0.029449	-0.060272	-0.010223	-0.035553
57.039	0.029297	0.061188	0.23254	0.016022	0.042725	0.42221	-0.054016	0.019836	0.051727	0.014343	0.016632	0.036926	0.14099	0.032654	0.018311	0.018616	-0.023346	-0.47836	0.023041	-0.017548	0.014648	0.1767	-0.098419	0.032349	-0.029144	-0.007324	1.1201	-0.011749	-0.030212	-0.081787	-0.006256	-0.040131
57.04	0.000153	0.050049	0.19486	0.027618	-0.03418	0.63065	-0.028687	0.026093	0.019836	0.023041	0.021973	0.050507	0.072174	0.059509	0.006561	0.010529	-0.040741	-0.51788	0.007629	-0.15671	0.1741	0.51209	-0.1181	0.09964	-0.015564	-0.001526	1.2166	-0.010223	-0.013885	-0.085907	-0.003967	-0.032806
57.041	-0.014801	-0.012054	0.2063	0.018921	-0.08316	0.39764	0.01297	0.014038	0.078583	0.063019	0.020294	0.054932	-0.030212	0.041351	-0.032196	0.029144	-0.040131	-0.49439	0.010071	-0.15396	0.13702	0.39932	-0.11002	0.10483	-0.033264	0.007935	0.99258	-0.006409	0.13229	-0.045013	-0.006409	-0.034943
57.042	0.009766	-0.12543	0.055847	0.02533	-0.025787	0.24231	-0.02182	-0.013885	0.17578	0.053253	0.030365	0.035095	0.03006	0.009766	-0.050354	0.046387	-0.009766	-0.50278	-0.097961	-0.057831	-0.053558	0.13657	-0.10544	0.11826	-0.030212	0.013428	-0.44723	-0.011292	0.24811	0.00061	-0.005798	-0.036011
